<mxfile host="app.diagrams.net" agent="Mozilla/5.0 (Windows NT 10.0; Win64; x64) AppleWebKit/537.36 (KHTML, like Gecko) Chrome/140.0.0.0 Safari/537.36 Edg/140.0.0.0" version="28.2.4">
  <diagram name="PÃ¡gina-1" id="gZNg2OCqjIY0bzEoLKc9">
    <mxGraphModel dx="1379" dy="720" grid="1" gridSize="10" guides="1" tooltips="1" connect="1" arrows="1" fold="1" page="1" pageScale="1" pageWidth="827" pageHeight="1169" math="0" shadow="0">
      <root>
        <mxCell id="0" />
        <mxCell id="1" parent="0" />
        <mxCell id="z4cGDSSya1EUbOwp_awG-14" value="" style="endArrow=classic;html=1;rounded=0;exitX=0.5;exitY=1;exitDx=0;exitDy=0;exitPerimeter=0;" edge="1" parent="1" source="z4cGDSSya1EUbOwp_awG-9" target="z4cGDSSya1EUbOwp_awG-20">
          <mxGeometry width="50" height="50" relative="1" as="geometry">
            <mxPoint x="404" y="522" as="sourcePoint" />
            <mxPoint x="413.2499999999998" y="555" as="targetPoint" />
          </mxGeometry>
        </mxCell>
        <mxCell id="z4cGDSSya1EUbOwp_awG-3" value="&lt;span style=&quot;background-color: light-dark(#ffffff, var(--ge-dark-color, #121212));&quot;&gt;MQTT/HTTP/Serial&lt;br&gt;&lt;/span&gt;" style="endArrow=classic;html=1;rounded=0;labelBackgroundColor=none;entryX=0.5;entryY=0;entryDx=0;entryDy=0;entryPerimeter=0;" edge="1" parent="1" source="z4cGDSSya1EUbOwp_awG-52" target="z4cGDSSya1EUbOwp_awG-19">
          <mxGeometry width="50" height="50" relative="1" as="geometry">
            <mxPoint x="411.75057922715223" y="147.86285884277856" as="sourcePoint" />
            <mxPoint x="410" y="220" as="targetPoint" />
          </mxGeometry>
        </mxCell>
        <mxCell id="z4cGDSSya1EUbOwp_awG-9" value="&lt;span style=&quot;background-color: light-dark(#ffffff, var(--ge-dark-color, #121212));&quot;&gt;&lt;font style=&quot;color: light-dark(rgb(0, 0, 0), rgb(232, 151, 42));&quot;&gt;Modelo de Machine Learning&lt;/font&gt;&lt;/span&gt;" style="outlineConnect=0;dashed=0;verticalLabelPosition=bottom;verticalAlign=top;align=center;html=1;shape=mxgraph.aws3.machine_learning;fillColor=#f5f5f5;fontColor=#333333;strokeColor=#666666;" vertex="1" parent="1">
          <mxGeometry x="375" y="408" width="76.5" height="93" as="geometry" />
        </mxCell>
        <mxCell id="z4cGDSSya1EUbOwp_awG-10" value="" style="endArrow=classic;html=1;rounded=0;" edge="1" parent="1" target="z4cGDSSya1EUbOwp_awG-9">
          <mxGeometry width="50" height="50" relative="1" as="geometry">
            <mxPoint x="414.4885563380283" y="354" as="sourcePoint" />
            <mxPoint x="440" y="331" as="targetPoint" />
          </mxGeometry>
        </mxCell>
        <mxCell id="z4cGDSSya1EUbOwp_awG-19" value="&lt;font style=&quot;background-color: light-dark(#ffffff, var(--ge-dark-color, #121212)); color: light-dark(rgb(0, 0, 0), rgb(45, 66, 255));&quot;&gt;Banco de dados&lt;/font&gt;" style="verticalLabelPosition=bottom;html=1;verticalAlign=top;align=center;strokeColor=#666666;fillColor=#f5f5f5;shape=mxgraph.azure.sql_database;fontColor=#333333;" vertex="1" parent="1">
          <mxGeometry x="384.5" y="256" width="61" height="83" as="geometry" />
        </mxCell>
        <mxCell id="z4cGDSSya1EUbOwp_awG-20" value="&lt;span style=&quot;background-color: light-dark(#ffffff, var(--ge-dark-color, #121212));&quot;&gt;&lt;font style=&quot;color: light-dark(rgb(0, 0, 0), rgb(51, 230, 52));&quot;&gt;Dashboard&lt;/font&gt;&lt;/span&gt;" style="sketch=0;outlineConnect=0;fontColor=#333333;fillColor=#f5f5f5;strokeColor=#666666;dashed=0;verticalLabelPosition=bottom;verticalAlign=top;align=center;html=1;fontSize=12;fontStyle=0;aspect=fixed;pointerEvents=1;shape=mxgraph.aws4.opensearch_dashboards;" vertex="1" parent="1">
          <mxGeometry x="366.5" y="573" width="92.54" height="70" as="geometry" />
        </mxCell>
        <mxCell id="z4cGDSSya1EUbOwp_awG-52" value="Sensor" style="shape=image;verticalLabelPosition=bottom;labelBackgroundColor=default;verticalAlign=top;aspect=fixed;imageAspect=0;image=data:image/png,iVBORw0KGgoAAAANSUhEUgAAAIAAAACACAYAAADDPmHLAAAACXBIWXMAAA7DAAAOwwHHb6hkAAAAGXRFWHRTb2Z0d2FyZQB3d3cuaW5rc2NhcGUub3Jnm+48GgAADzpJREFUeJztnXe0XUUVh/fcAKEICBEUBBOahY6FIhpiRbGgCGIBK7qWS0VE8B/FrrSIUmyogBW7S1pQAdEgoRdDkBJIIqJCaCkkpPg+/5jz9Ply7/7tc0vuK/OtlbWy3pn5zT5zzp0zs2dmj1mhUCgUCoVCoVAoFAqFQqFQKBQKhUKhUCgUCoVCYUyRuikGNMxsNzObbGazU0rzuqk/XgG2N7NdzWyB5Xod6LNJawJsB9zM//MzYIN+2zZaATYAfj6sTm8CpvTbtv8D2BaYR3O+1m/7RivAN1vU6Txgm37bZ2ZmwJbA7S0MBVhSfRoKNQAaVd214i7gaf02cmPWbPabsUVfDR2FVD8sxY3Ak/pl4DrAxQEj/9UXA8cAwAOB+r0QmNAP484MGAdw7Fo3bowAHBes46+ubcPeETTsHKCrQ83xBJCqOozw9rVl1J7AsoBBFwDrrBWjxjDkT+2Fgfp+HNit18ZsCNwRMOYaYKOeGjOOIPsDZgbq/XZgw14a0mpcOpTbgM17ZsQ4BdgUuCVQ/2f2yoBXAwOi8IeAZ/TEgIIBk4GHxTMYAF7Z7YI3Au4NFHxwDc2pwBXAY8CdwEnA+l01fAQCrA+cTHbkPAZcDry4Rv7XBH6I8+mmfwA4XRQIML2G3kHAyiYaF3TN6BEKcFGT+14JHFRD4yvdfB6qsD2B1aKwa4H1gnr7kXusrdivK4aPQID9nfteCuwb1FkPuE48k1XArt0w+gpR0CJgu6DWzuhv2Ic7NnqEAhwt7v0h4DlBre2BxULvd50afLAoAOCjQa2tgfsCeod3ZPQIBnhL4P4XAFsF9SKewte0a2wDuFWI3wasG9CaAFwZMHYR8JS2DB4FAFugf7WQW13p3yc7if4itGbTzmwssbf1JUGtzwW0VgOvr23oKAN4PbpPBfDpoN5U9KjgkLpGNoA5QvSHQa1pgRseAI6qZeQoBnhf4AX4N/CyoN75QutW6szJkMeaHssIfKeAzYB/BG72E2HjxgjACYF6uR94ckBrG+AJoXVgHeMuE2JnBXXOCtzk2WHDxhjAdwP1c0ZQ61tC59KoUbvgf1NWERj2AXuhm/7ZjONFo2SvoPLvrwb2DGjtIOp7gMgQE+1l+kFAIwFXC52lIYP+pzkN+CLwZeBQ+rEKpgXkUc5hlW1fAKbWyPtM9MjgKgLfcODHQsf3DgITyc6IVgwQ8C4BRwpDAN5do5KmN8k/g6D3sZeQvXKXNrHv1BoaRwXq660Bnd3xW+8H8IbtwJuEEfI7Qv713yZ0ZhLsleJ3lo6LaPQS4OOOfZ8MaiS0n+R2AuN54LdCp/WEHfATkVkuOwLeKDRWAbsHK+b9Quv3EZ1egt9hDg9vgV2ruvGQfhJ069t8+E5edeKtQ19CYJUPeWLI47RghexD8xnDofw5otVL0H2dFcALglpq1nVWQGMj/Oe4mGbT7mQPlUek8zdNaCwBJgV0NqP1TqOhnKK0eg3N+yfDuYfYeH4L/JlSgAMCOj8SGmvODwBfE5leFSj4+0Ljy0qj0lG9WciLHvq+4YS8gWNBwF75A6r0VCtwXkBDOfJOb5ZprpNhIWKFL3nBqDecWUlguRgx33Z42nRtADwHf/REdU+RX+825M9GKxYjFn4C6+JPu98xPMMUYfzPA4a/VWicF9BYD3+fIcByYB+l1UJ/J3LH8uvkYeSs6t+M6m/vB3ZsU3s/tDt2NrHZ0+8JHTllDvxKaGw7NPHbReIPBgpU28SmBTQikyTSlmGa65HH2TcGtAe5AXgvNf0MwEcC2tL/AbxMaMilcwFbDh+aWG3zcp0/5Obfe/v/jhjDkr1pdwk7fqNufJjmweS+QrvMA15Xo7xE8zV/Q7kjUBcN/MUzTyBc6MAewo6vDk3sDd0eRDhtgJeLwk4KVN5hQuNxYLLSqbQmkFcZd4tvEdzlRA6UoXZOHRrQOVVouGsxyC+R1y+ZNTThUifhLwLGfl4Yu3dAQ3mwPqU0Kp1NyN/0bnMxsHHQBrUAJuJR3U9ofDag4fUDlgDJgB1FQdKdib9taTF6BLEV/kzWImLj6AaxfXTtcimxpVqb44+IViOCO5CXe3kaVwbs+LS4nykNM9tZ6NwtCploZp6na2ZKabUo481m5lXs2Smlx4SGmdl0M3ttIF27HGhmJ6pEKaVHzOzbTpIJlu/Z01htZlc7Sfat6t7jLnF9l4aZqbl9JbKjmXmG/FHkN8sV63GeEiD7yUMrlDvkeOAVgXTfFdcjGl7dTTSz7UV+98drZts1LId0awUBkZ3E9Ru8i+TPw4ucJDemlOYIjYlmFlo50yVOQfTkU0q3m9ktTpKpgc/J9eK6qvs7xfXJDTPzvHP/TCktFSLPEtdVC7KXmXmdq0tEfjOzI81/kbvNnmb2tkC6i51rm1i+dw/143umdzGltMTMvBA9kxtm5vnT5wsDzPy38HEzu1/kV0ENrgzY8IFAmm4T2cGkPn/q3u8zs+XOddUCmJl5wTq3aJiZNzu3OFCA14LMTSkh8ns3gZld52UGdjKz54oyesHe6LWR14rr7gOsIoLOdZJEWr0lzrVJDTPzgjl4mQfxmu9/BvJ7zdg/Ap+glwbK6BXuuv2U0mLz68Btwiu8Jjzil/Ce4eYNM/NmllTlm5l5+9Aj+b1PkPf2DyJXzPaQSNnePUSms706jMQA8F6ADRvmD+EiLUCnL4CX/9FA/tDO5B6hhmFmZp7/otMHGGkBvGcwsWFm3ozX2mgBvPyPB/JvEkjTKzYNpOn0AfYy/8QSw3ec0zCzlc71SBPV6TfKyx8JNbcokKZXRMr2fqWddrI7zb+iYWYr2sw8SC87KZFwc/08lOKeQJrNnGuRT2SnL4D3DFY0zGxZm5kH6fQFWOhc2yGQ33O39ppbA2m8e3gwkL/TPpb3Ai1rmNkjbWYexHsLtw7k99ydW6PDnV0RKKNXXOZdBDYxM28bvXL1msjf6Sfg4YaZPewkiPSwFzjXdlKTJuZXQjIzdwFoSmmumd0oyugF16aU5os0KuqXO09S1Z3Xgnh1P4j3DB9pmN8ER8bY3gPcwMyeLvLPFtflUmoz+0YgTbeJhGRVtt8mrj/Dch22ItKCeM9wYcPM/uYkeBp6GZSa7VPuzpvNn3OIRLn6gcUmrrrFzWZ2fiCdZ/uiSsdDTfaoFmRTM3uqk2R+w/xmJFle8OGh3sLneRerlS9XOUmeC+wiNFaa2dHCjm5yvDq6DdjZzPZwksxMKf1blKP2FKofn3qBFjRMD6PUL3iu+UPJaSK/mdlvxfV3KYGU0oVmFtp61iEnpZQuD6RTu4LVPZuZeYEmVpjZvSK/egHmD4YW8ThBWQn8yckfWRS6Jf7W6MWAN54e1On1otAZdGdR6CrAa5q7tSj0M+J+pgy2AJ7PPTLj5RmzsenPwIPmD+c2tkATXzXLb7PYKqK6XGRmhwWabTOzY80ffl2WUnpAaLxAaFwZsMP7BC2xwc8//saQheiNIWor08nKUnLcH486G0NS4O2vw+kEo22SY/guF3pvCuiobefTRP4G/gbRWUMTnyEKc5cukYNLeFvD7iO2NexOYccF1Ah4CLyC2LmGrbiJYLDGqryE3iP510BdNMjb6VqxHHG2AjnKu8dpQxOrnb0fCty82hMnw8qSN2QqpC3DNBvAEejIJUO5hrxhttZsKXBMQPudAR3Voso9kgFbDhuaWG0Pj2wPU7GFzwtorIsOUfsEbZ4pQN63915yMIxLyOFdrq7+f1Z1bUqb2vvj7+uHHNhZ7jFEB9qIbA//tdDYZniGu53EDynD6V6AiBcTCxChdjStNYidgzBAIH4g3QsQ8Yij8dfBtEObOG9cOsnETpaU0jIz+7WTZF0zO8bTqHRmmvayTTKzGYyQEDFmNsP01PUPU0p/Ckgeb/4qrV9Wde1xoPnT0Gs+a+B14g2W0cHRQaKWEgsS9WT0IVVQIxhjryBHB1XMJbtllVa3gkSp6OFrnk9E7sl7TfhSAidRkTtQHl9RGpXO3uhv6kgIEzdL2PgE8PyglgrUEQ0T5233X0SrEQT6zTkiYMAbhMYqwHNQDNVSIWM6OxOnCwC/d+wbAN4T1NkNHShSRitBB4r8vpf5EJFZ+q/JY+HZQqdboWI/FtHoJcDxjn2hcxCqOvujqLM5xELF/k7otH6JyAGVFjqZBwgcUIwOOgXBX0al1ypYtIy41WuqOmsWkSQcxJJYcKzI0E8Fi/6XrDPgNGFIpDMYeaPrhoufSg5FM53cUo2YJe1kZ9MhlW2fB7zt7sPz7oLu+EXDxatPuH4piR0YIXfEEPumzaaXp12PcIgfGCH7TORQP50fGFGJqe/I14M6qlcL8J2QUWMQ4NxA/awZ1rW51tlCJz5DSj7b12M5IFf8ksfzkUOjQnH1xxLoAE6QD42K+A+2RUcpjYSk+a9gpCf/o6DWAcTOyas1yTOaQZ+DAPWOjfup0LqZOsfGVaIqcCPED46MzM2Pl4MjDyb2g4jGRVQzhwBvaMfQhO6gzCF+dOwfAoaO9aNjtyR2dOzlxMb8kaNjb6Lur39IAWp+AILOGPLh0X8L6I3lw6PVugvIsY3dIJJD9Dwn1CCv7tRodYjkYgLDwkorEld/PB8fvxB4dlBrB/yjYQBmdMPo3dHfrOsIhlYH9sV3fLS12GM0ALzQue+lBM9BIB/vd4N4Jqvo1poJtHcQgodBVXoH0fxAKBkHf7RD82XrK2k2RdtaQx0rA4GFuHWM3hA9Pz9Ajd4meeXPZcCj5Bj6X0LHvh31kH+9J1b3/Ch5NnH/Gvlfi14xNZ/ACW91DX9VoOCHCSz7KrQHMJnY0rO406emAepkMchDw0hkj0INgEno85Qg6Dpu14j10R5CyKuCutsEjWPIq7WuCv74ensaO3lUoKYvIXd2QsesFFpDdvZE9jsuJXCwd7eMOiJgEMA5tOuFKgx6Y88N1rU8XbzbxkWGIjAClm2NVoh5+qDGELybxk0g1jR5wY4LDuQT2xS/IbBlvVcGPonYgYx938Ax2iBPHCmup9+dbfJmBm94sogRtH5vtEBeZ+jNHN5FcNKo55D3s81rYehZ/bZvtEI+z7gZ9zJ8c2e/Ie8wHv45OJ9ej0vHMOTx//DVPjfQ5g7mZnR1iFY19btaPsrkLymlSCDDgqB64LtZDoU3R0UoKxQKhUKhUCgUCoVCoVAoFAqFQqFQKBQKhUKhUCiMY/4DITpTKYoTRUQAAAAASUVORK5CYII=;fontColor=light-dark(#000000,#E03636);" vertex="1" parent="1">
          <mxGeometry x="374.04" y="80" width="80" height="80" as="geometry" />
        </mxCell>
      </root>
    </mxGraphModel>
  </diagram>
</mxfile>
